<svg version="1" xmlns="http://www.w3.org/2000/svg" viewBox="0 0 300 300"><circle fill="#4473C5" cx="150" cy="154.1" r="133.5"/><path fill="#FFF" d="M129.9 214.3v-51.7h-7.2c-1.9 0-3.6-.7-5-2.2-1.4-1.4-2.2-3.1-2.2-5v-17.2c0-1.9.7-3.6 2.2-5s3.1-2.2 5-2.2h40.2c1.9 0 3.6.7 5 2.2 1.4 1.4 2.2 3.1 2.2 5v76.1h7.2c1.9 0 3.6.7 5 2.2 1.4 1.4 2.2 3.1 2.2 5v17.2c0 1.9-.7 3.6-2.2 5-1.4 1.4-3.1 2.2-5 2.2h-54.5c-1.9 0-3.6-.7-5-2.2-1.4-1.4-2.2-3.1-2.2-5v-17.2c0-1.9.7-3.6 2.2-5 1.4-1.4 3.1-2.2 5-2.2h7.1zm1.8-144.6c-5 5-7.5 11.1-7.5 18.3s2.5 13.3 7.5 18.3 11.1 7.5 18.3 7.5 13.3-2.5 18.3-7.5 7.5-11.1 7.5-18.3-2.5-13.3-7.5-18.3-11.1-7.5-18.3-7.5-13.3 2.5-18.3 7.5z"/></svg>