<svg version="1" xmlns="http://www.w3.org/2000/svg" viewBox="0 0 300 300"><circle fill="#4473C5" cx="150" cy="154.1" r="133.5"/><path fill="#FFF" d="M150 160.2s-.2 44-.2 45.8c0 3.7 1.3 7.7 5.4 8.9H72.5c-3.8 0-7-1.3-9.7-4s-4-5.9-4-9.7v-12c0-6.8 1.7-13.2 5.1-19.1s8.1-10.5 14-14S90.2 151 97 151h4.8c6.6 3 13.6 4.6 20.8 4.6s14.2-1.5 20.8-4.6h11.7c-4.7 2.2-5.1 6.2-5.1 9.2zM122.6 142c-6.6 0-12.8-1.6-18.4-4.8s-10-7.6-13.2-13.2-4.8-11.7-4.8-18.4 1.6-12.8 4.8-18.4 7.6-10 13.2-13.2 11.7-4.8 18.4-4.8 12.8 1.6 18.4 4.8 10 7.6 13.2 13.2 4.8 11.7 4.8 18.4-1.6 12.8-4.8 18.4-7.6 10-13.2 13.2-11.7 4.8-18.4 4.8zM198.6 193.7c-1.4 0-3.2-.7-5.3-2-1.2-.7-2.9-1.9-5.2-3.7l-1.7-1.2c-13.6-10-22.9-16.8-27.8-20.6l-1.2-.8c-1-.8-1.5-1.8-1.5-3.2V159c0-2.2.8-4.1 2.3-5.7s3.4-2.3 5.7-2.3H233c2.2 0 4.1.8 5.7 2.3s2.3 3.4 2.3 5.7v3.2c0 1.3-.5 2.4-1.5 3.2l-.8.7c-4.8 3.8-14.1 10.7-28.1 20.8l-1.7 1.2c-2.2 1.8-3.9 3-5.2 3.7-1.9 1.2-3.7 1.9-5.1 1.9zm40.9-21.5c-4 3.1-12.5 9.4-25.6 18.8l-1.7 1.3c-2.5 2-4.7 3.4-6.3 4.3-2.7 1.6-5.1 2.3-7.3 2.3s-4.7-.7-7.3-2.2c-1.6-.9-3.7-2.3-6.3-4.3l-1.7-1.5c-13.4-9.8-21.9-16-25.6-18.8-.3-.2-.7-.2-1.1-.1s-.6.5-.6.9V207c0 2.2.8 4.1 2.3 5.7s3.4 2.3 5.7 2.3h69.1c2.2 0 4.1-.8 5.7-2.3s2.3-3.4 2.3-5.7v-33.9c0-.4-.2-.8-.6-1s-.7-.2-1 .1z"/></svg>