<svg version="1" xmlns="http://www.w3.org/2000/svg" viewBox="0 0 300 300"><circle fill="#4473C5" cx="150" cy="154.1" r="133.5"/><path fill="#FFF" d="M193.6 219.3l3.7 18.2c0 1.4-.3 2.6-1 3.7s-1.6 1.8-2.7 2.1c-8.3 2.2-16.7 3.3-25.2 3.3-21.2 0-39.7-6.1-55.4-18.2-15.2-11.6-25.4-27-30.6-46.3H69.9c-1.4 0-2.6-.5-3.5-1.4-1-1-1.4-2.1-1.4-3.5v-11.6c0-1.4.5-2.6 1.4-3.5 1-1 2.1-1.4 3.5-1.4h8.7c-.3-5.5-.1-11.3.4-17.4h-9.1c-1.4 0-2.6-.5-3.5-1.4-1-1-1.4-2.1-1.4-3.5V126c0-1.4.5-2.6 1.4-3.5 1-1 2.1-1.4 3.5-1.4h13.6c6.1-17.6 16.8-32 32.1-43s32.9-16.5 52.7-16.5c6.9 0 14.1.7 21.5 2.1 1.4.3 2.5 1 3.3 2.3.8 1.2 1.1 2.6.8 3.9l-5 18.2c-.6 1.4-1.4 2.4-2.5 3.1s-2.2.9-3.3.6c-5.8-1.1-11-1.7-15.7-1.7-11 0-20.8 2.8-29.4 8.3-8.5 5.5-15 13.1-19.4 22.7h57.1c1.7 0 3 .6 3.9 1.9s1.3 2.7 1 4.3l-2.5 12c-.3 1.1-.9 2.1-1.9 2.9s-2 1.2-3.1 1.2h-60.8c-.6 5.2-.6 11 0 17.4h55.4c1.7 0 3 .6 3.9 1.9s1.3 2.7 1 4.3l-2.5 11.6c-.3 1.1-.9 2-1.9 2.7-1 .7-2 1-3.1 1H118c4.1 10.8 10.7 19.4 19.6 25.8 9 6.5 19.2 9.7 30.8 9.7 6.1 0 12.3-.8 18.6-2.5 1.4-.3 2.7 0 3.9.8 1.6.8 2.4 1.9 2.7 3.2z"/></svg>